<svg xmlns="http://www.w3.org/2000/svg" xmlns:xlink="http://www.w3.org/1999/xlink" version="1.1" x="0px" y="0px" viewBox="0 0 100 100" enable-background="new 0 0 100 100" xml:space="preserve">
    <path style="stroke-width: 1; stroke: red; fill: #0000;" d="M50,5C25.2,5,5,25.2,5,50c0,24.8,20.2,45,45,45c24.8,0,45-20.2,45-45  C95,25.2,74.8,5,50,5L50,5z">
    </path>
    <path style="stroke-width: 1; stroke: red; fill: #0000;" d="M53.5,46.7V25.6c0-2-1.6-3.5-3.5-3.5c-2,0-3.5,1.6-3.5,3.5v29.6c0.1,2,1.6,3.6,3.5,3.6c0.8,0,1.7-0.4,2.4-1.1L67.2,43  c1.4-1.4,1.4-3.7,0-5c-1.4-1.4-3.7-1.4-5,0L53.5,46.7z ">
    </path>
</svg>